# xmcd
#
# Track frame offsets: 
#        150
#        10855
#        23345
#        36340
#        49537
#        58395
#        72110
#        83285
#        100922
#        107857
#        119547
#        131547
#
# Disc length: 1917 seconds
#
# Revision: 0
# Processed by: cddbd v1.4PL0 Copyright (c) Steve Scherf et al.
# Submitted via: ExactAudioCopy v0.90a11
#
DISCID=94077b0c
DTITLE=Jimmy Martin - Me'n Ole Pete
DYEAR=1900
DGENRE=
TTITLE0=Run Pete Run
TTITLE1=Moonlight Love
TTITLE2=Who's Calling You Sweetheart Tonight
TTITLE3=I'm A Bluegrass Singin' Man
TTITLE4=Beautiful Brown Eyes
TTITLE5=Play Me Some George Jones Songs
TTITLE6=Pete, The Best Coon Dog in the State of Tennessee
TTITLE7=Knoxville Girl
TTITLE8=Eagle Eye Tom
TTITLE9=Lover's Lane
TTITLE10=Sweet Little Maggie
TTITLE11=Don't Let Your Sweet Love Die
EXTD=
EXTT0=
EXTT1=
EXTT2=
EXTT3=
EXTT4=
EXTT5=
EXTT6=
EXTT7=
EXTT8=
EXTT9=
EXTT10=
EXTT11=
PLAYORDER=
